<?xml version="1.0" encoding="utf-8"?>
<!-- Generator: Adobe Illustrator 26.3.0, SVG Export Plug-In . SVG Version: 6.00 Build 0)  -->
<svg version="1.1" class="Layer_1" xmlns="http://www.w3.org/2000/svg"  x="0px" y="0px"
	 viewBox="0 0 200 200" style="enable-background:new 0 0 200 200;" xml:space="preserve">
<style type="text/css">
	.st0{fill:#CC0000;}
	.st1{fill:#0000CC;}
</style>
<path class="wrappear st0"  d="M71.6,16.3c12.8-21.8,44.3-21.8,57,0l0.5,0.8c5.9,10,16.6,16.3,28.3,16.3l0.9,0
	c25.3,0.2,41,27.4,28.5,49.4l-0.5,0.8c-5.8,10.1-5.8,22.5,0,32.7l0.5,0.8c12.5,22-3.3,49.2-28.5,49.4l-0.9,0
	c-11.6,0.1-22.4,6.3-28.3,16.3l-0.5,0.8c-12.8,21.8-44.3,21.8-57,0l-0.5-0.8c-5.9-10-16.6-16.3-28.3-16.3l-0.9,0
	c-25.3-0.2-41-27.4-28.5-49.4l0.5-0.8c5.8-10.1,5.8-22.5,0-32.7l-0.5-0.8c-12.5-22,3.3-49.2,28.5-49.4l0.9,0
	c11.6-0.1,22.4-6.3,28.3-16.3L71.6,16.3z"/>
<circle class="main_x5F_body st1"  cx="100" cy="104.5" r="63.1"/>
</svg>
