<?xml version="1.0" encoding="iso-8859-1"?>
<!-- Generator: Adobe Illustrator 19.0.0, SVG Export Plug-In . SVG Version: 6.00 Build 0)  -->
<svg version="1.1" id="Layer_1" xmlns="http://www.w3.org/2000/svg" xmlns:xlink="http://www.w3.org/1999/xlink" x="0px" y="0px"
	 viewBox="0 0 488.123 488.123" style="enable-background:new 0 0 488.123 488.123;" xml:space="preserve">
<g>
	<g>
		<g>
			
				<rect x="236.436" y="145.681" transform="matrix(0.7071 0.7071 -0.7071 0.7071 227.8841 -107.7944)" width="15.252" height="151.004"/>
			
				<rect x="274.573" y="222.493" transform="matrix(-0.7071 -0.7071 0.7071 -0.7071 309.165 616.1885)" width="15.252" height="43.144"/>
			
				<rect x="345.12" y="116.89" transform="matrix(-0.7071 -0.7071 0.7071 -0.7071 479.4793 545.6397)" width="15.252" height="113.253"/>
			<path d="M465.243,350.838V114.664c0-25.376-20.646-46.022-46.022-46.022H68.91c-25.383,0-46.03,20.646-46.03,46.022v236.174H0
				v7.627c0,33.643,27.372,61.016,61.015,61.016h366.1c33.643,0,61.008-27.372,61.008-61.016v-7.627H465.243z M38.135,114.664
				c0-16.967,13.809-30.768,30.776-30.768h350.31c16.967,0,30.768,13.801,30.768,30.768v236.174H38.135V114.664z M280.077,366.092
				c-2.644,4.538-7.507,7.627-13.126,7.627h-61.023c-5.62,0-10.485-3.089-13.132-7.627H280.077z M427.116,404.226h-366.1
				c-22.635,0-41.486-16.52-45.128-38.135h6.994h153.622c3.409,13.12,15.248,22.881,29.424,22.881h61.023
				c14.17,0,26.007-9.761,29.417-22.881h168.875h6.994C468.594,387.706,449.743,404.226,427.116,404.226z"/>
			<rect x="205.927" y="99.149" width="45.762" height="15.254"/>
			<rect x="266.943" y="99.149" width="15.254" height="15.254"/>
			<rect x="53.389" y="320.33" width="83.896" height="15.254"/>
			<rect x="152.539" y="320.33" width="15.254" height="15.254"/>
			<rect x="183.046" y="320.33" width="15.254" height="15.254"/>
		</g>
	</g>
</g>
<g>
</g>
<g>
</g>
<g>
</g>
<g>
</g>
<g>
</g>
<g>
</g>
<g>
</g>
<g>
</g>
<g>
</g>
<g>
</g>
<g>
</g>
<g>
</g>
<g>
</g>
<g>
</g>
<g>
</g>
</svg>
