<?xml version="1.0" encoding="iso-8859-1"?>
<!-- Generator: Adobe Illustrator 19.0.0, SVG Export Plug-In . SVG Version: 6.00 Build 0)  -->
<svg version="1.1" id="Layer_1" xmlns="http://www.w3.org/2000/svg" xmlns:xlink="http://www.w3.org/1999/xlink" x="0px" y="0px"
	 viewBox="0 0 502 502" style="enable-background:new 0 0 502 502;" xml:space="preserve">
<g>
	<g>
		<g>
			<path d="M202.401,380.719c-3.907-3.905-10.237-3.905-14.143,0c-3.905,3.906-3.905,10.238,0,14.143l24.058,24.058
				c1.953,1.953,4.511,2.929,7.071,2.929c2.559,0,5.118-0.976,7.072-2.929c3.905-3.906,3.905-10.238,0-14.143L202.401,380.719z"/>
			<path d="M404.38,404.778c-37.117,37.116-94.063,47.283-141.703,25.3c-5.017-2.314-10.957-0.125-13.271,4.89
				c-2.313,5.015-0.125,10.956,4.89,13.27c19.265,8.889,39.978,13.412,60.957,13.412c8.216,0,16.473-0.694,24.699-2.091
				c29.892-5.077,57.061-19.13,78.571-40.639c3.905-3.905,3.905-10.237,0-14.142C414.617,400.874,408.287,400.873,404.38,404.778z"
				/>
			<path d="M447.352,183.486L318.514,54.648C283.273,19.408,236.419,0,186.581,0C136.746,0,89.895,19.406,54.655,54.642
				c-0.002,0.002-0.005,0.004-0.007,0.006s-0.004,0.004-0.006,0.007C19.406,89.895,0,136.747,0,186.581
				c0,49.837,19.408,96.692,54.648,131.933l128.838,128.838C218.727,482.592,265.581,502,315.419,502s96.692-19.408,131.933-54.648
				C482.592,412.111,502,365.256,502,315.419C502,265.582,482.592,218.727,447.352,183.486z M433.209,433.209
				C401.746,464.673,359.914,482,315.419,482s-86.327-17.327-117.79-48.79L68.791,304.371C37.327,272.908,20,231.076,20,186.581
				c0-41.145,14.826-80.006,41.935-110.504L81.258,95.4c-6.648,12.683-4.649,28.753,5.997,39.4l36.584,36.583
				c6.35,6.35,14.792,9.847,23.772,9.847c5.538,0,10.869-1.334,15.633-3.843l19.446,19.446c1.953,1.953,4.512,2.929,7.071,2.929
				c2.559,0,5.118-0.976,7.071-2.929c3.905-3.905,3.905-10.237,0-14.143l-19.452-19.452c6.648-12.683,4.649-28.752-5.997-39.399
				L134.8,87.255c-10.648-10.647-26.717-12.644-39.4-5.997L76.078,61.935C106.575,34.826,145.436,20,186.581,20
				c44.495,0,86.327,17.327,117.79,48.79l128.838,128.839C464.673,229.092,482,270.924,482,315.419S464.673,401.746,433.209,433.209
				z M101.397,101.398c2.655-2.655,6.143-3.983,9.631-3.983c3.487,0,6.976,1.328,9.63,3.982l36.583,36.583
				c5.31,5.312,5.311,13.952,0,19.261c-2.572,2.573-5.992,3.989-9.63,3.989s-7.058-1.417-9.63-3.989l-36.584-36.583
				C96.086,115.348,96.086,106.708,101.397,101.398z"/>
		</g>
	</g>
</g>
<g>
</g>
<g>
</g>
<g>
</g>
<g>
</g>
<g>
</g>
<g>
</g>
<g>
</g>
<g>
</g>
<g>
</g>
<g>
</g>
<g>
</g>
<g>
</g>
<g>
</g>
<g>
</g>
<g>
</g>
</svg>
