<?xml version="1.0" encoding="utf-8"?>
<!-- Generator: Adobe Illustrator 26.3.0, SVG Export Plug-In . SVG Version: 6.00 Build 0)  -->
<svg version="1.1" id="product_x5F_bg" xmlns="http://www.w3.org/2000/svg" xmlns:xlink="http://www.w3.org/1999/xlink" x="0px"
	 y="0px" viewBox="0 0 640 420" style="enable-background:new 0 0 640 420;" xml:space="preserve">
<style type="text/css">
	.st0{fill:#FF0000;}
</style>
<g>
	<path class="st0" d="M14.5,241.4c-28.7,0-52-33.9-52-75.5c0-32.5,14.3-61.3,35.5-71.6l0.5-0.3l-0.4-0.5
		c-7.4-10.1-11.8-23.2-12.5-36.9l0-0.2l-0.1-0.1c-23.6-22.8-33.9-45.5-29.1-64c2.6-15.1,13.1-31.6,30.4-47.8l0.1-0.1l0-0.2
		c0.9-13.7,5.6-26.8,13.1-36.8l0.4-0.5l-0.5-0.3c-21.1-10.6-34.9-39.6-34.5-72.1c0.6-41.2,24.1-74.8,52.5-74.8l0.5,0
		c18.8,0.3,36,15.3,44.9,39.3l0.2,0.5l0.5-0.3c8.4-4.3,18-6.6,27.6-6.6c0.3,0,0.6,0,0.9,0c32.3,0.4,58.2,25.7,57.7,56.3
		c-0.1,8.4-2.2,16.4-6.1,23.9l-0.5,0.9l1-0.1c11.5-1.6,22.6-2.4,33.2-2.4c41.9,0,70.4,12.4,78.1,34.1c4.3,11.9,1.8,26.1-7.2,40.9
		l-0.5,0.8l0.9,0c1.7-0.1,3.4-0.1,5.1-0.1c0.7,0,1.4,0,2.1,0c24,0.3,46.4,6.4,63.2,17c16.7,10.6,25.8,24.5,25.6,39.2
		c-0.3,23.5-24.9,44.1-61.2,51.2c-9.2,1.9-18.9,2.9-28.8,2.9c-2.4,0-4.8-0.1-7.2-0.2l-0.9,0l0.5,0.8c8.7,15,11,29.1,6.6,41
		c-7.8,21-35.4,33.1-75.8,33.1c-11.3,0-23.4-1-35.9-2.9l-1-0.1l0.4,0.9c3.8,7.5,5.7,15.6,5.7,24c0,30.6-26.2,55.5-58.5,55.5
		c-9.9,0-19.8-2.4-28.4-7l-0.5-0.3l-0.2,0.5C50.7,226.6,33.3,241.4,14.5,241.4z"/>
	<path fill='#ffffff00' d="M17.8-239.7c0.2,0,0.3,0,0.5,0c18.6,0.3,35.6,15.2,44.4,39l0.4,1.1l1-0.5c8.4-4.3,17.8-6.5,27.4-6.5c0.3,0,0.6,0,0.8,0
		c32,0.4,57.7,25.5,57.2,55.8c-0.1,8.3-2.1,16.3-6,23.7l-0.9,1.7l1.9-0.3c11.5-1.6,22.6-2.4,33.1-2.4c20,0,37.6,3,51,8.7
		c13.8,5.9,22.8,14.4,26.6,25.1c4.2,11.8,1.7,25.8-7.1,40.5l-1,1.6l1.9-0.1c1.7-0.1,3.4-0.1,5.1-0.1c0.7,0,1.4,0,2.1,0
		c23.9,0.3,46.2,6.4,62.9,17c16.6,10.5,25.6,24.3,25.4,38.7c-0.3,23.2-24.7,43.6-60.7,50.7h0l-0.1,0c-9.2,1.9-18.8,2.9-28.7,2.9
		c-2.4,0-4.8-0.1-7.2-0.2l-1.8-0.1l0.9,1.6c8.7,14.8,10.9,28.9,6.6,40.6c-7.7,20.8-35.2,32.8-75.3,32.8c-11.3,0-23.3-1-35.8-2.9
		l-1.9-0.3l0.9,1.7c3.8,7.4,5.7,15.4,5.7,23.7c0,30.3-26,55-58,55c-9.9,0-19.6-2.4-28.2-6.9l-1-0.5l-0.4,1.1
		c-9.1,23.7-26.3,38.4-44.9,38.4c-28.4,0-51.5-33.6-51.5-75c0-32.3,14.1-60.9,35.2-71.2l1.1-0.5l-0.7-1c-7.3-10-11.7-23-12.4-36.7
		l0-0.4l-0.3-0.3c-23.4-22.6-33.7-45.2-29-63.6l0,0l0,0C-40.6-22.6-30.1-39-13-55.1l0.3-0.3l0-0.4c0.9-13.6,5.5-26.6,13-36.5l0.7-1
		L0-93.8c-20.9-10.5-34.7-39.3-34.2-71.6c0.3-20,5.9-38.7,15.8-52.7C-8.7-232,4.2-239.7,17.8-239.7 M17.8-240.7
		c-28.8,0-52.5,33.6-53,75.3c-0.5,33.5,14.1,62.1,34.8,72.5c-7.3,9.8-12.2,22.7-13.2,37c-17,15.9-27.8,32.6-30.5,48
		c-5,19.3,6.4,42.5,29.3,64.5C-14.1,71-9.4,84-2.2,93.9C-23,104-38,132.4-38,165.9c0,42,23.5,76,52.5,76c19.7,0,36.9-15.8,45.9-39
		c8.5,4.5,18.2,7,28.6,7c32.6,0,59-25.1,59-56c0-8.7-2.1-16.9-5.8-24.2c12.6,1.9,24.7,2.9,35.9,2.9c38.9,0,68.1-11.4,76.3-33.4
		c4.6-12.5,1.9-26.8-6.7-41.5c2.4,0.1,4.8,0.2,7.2,0.2c10.1,0,19.8-1,28.9-2.9c0,0,0,0,0,0c35.5-7,61.2-27.3,61.6-51.7
		c0.4-30.6-39.5-56-89.2-56.7c-0.7,0-1.4,0-2.1,0c-1.7,0-3.4,0-5.1,0.1c8.8-14.6,11.7-28.8,7.2-41.4c-8-22.6-38.3-34.5-78.5-34.5
		c-10.5,0-21.6,0.8-33.2,2.4c3.8-7.3,6-15.4,6.1-24.1c0.4-30.9-25.7-56.4-58.2-56.8c-0.3,0-0.6,0-0.9,0c-10.1,0-19.6,2.4-27.9,6.6
		C55-224.4,38-240.4,18.3-240.7C18.1-240.7,17.9-240.7,17.8-240.7L17.8-240.7z"/>
</g>
</svg>