<?xml version="1.0" encoding="iso-8859-1"?>
<!-- Generator: Adobe Illustrator 19.0.0, SVG Export Plug-In . SVG Version: 6.00 Build 0)  -->
<svg version="1.1" id="Layer_1" xmlns="http://www.w3.org/2000/svg" xmlns:xlink="http://www.w3.org/1999/xlink" x="0px" y="0px"
	 viewBox="0 0 512.002 512.002" style="enable-background:new 0 0 512.002 512.002;" xml:space="preserve">
<g>
	<g>
		<path d="M239.66,129.091c-69.978,0-126.91,56.932-126.91,126.91c0,27.847,8.893,54.303,25.719,76.506
			c2.724,3.597,7.85,4.303,11.446,1.577c3.596-2.726,4.303-7.85,1.577-11.446c-14.655-19.34-22.402-42.383-22.402-66.638
			c0-60.968,49.602-110.57,110.57-110.57S350.23,195.032,350.23,256s-49.602,110.57-110.57,110.57
			c-24.256,0-47.298-7.745-66.637-22.4c-3.597-2.724-8.72-2.02-11.446,1.577c-2.726,3.596-2.02,8.72,1.577,11.446
			c22.203,16.824,48.658,25.718,76.506,25.718c69.978,0,126.91-56.932,126.91-126.91S309.638,129.091,239.66,129.091z"/>
	</g>
</g>
<g>
	<g>
		<path d="M325.719,247.831H247.83v-56.102c0-4.512-3.658-8.17-8.17-8.17c-4.512,0-8.17,3.657-8.17,8.17v64.272
			c0,4.513,3.658,8.17,8.17,8.17h86.059c4.512,0,8.17-3.657,8.17-8.17S330.231,247.831,325.719,247.831z"/>
	</g>
</g>
<g>
	<g>
		<path d="M412.868,215.15h-7.683c-10.329-41.842-36.145-77.647-71-100.958L324.863,7.461c-0.392-4.496-4.362-7.821-8.85-7.428
			c-4.495,0.392-7.822,4.355-7.428,8.85l8.311,95.158c-23.2-11.84-49.451-18.523-77.236-18.523s-54.035,6.684-77.236,18.523
			l8.311-95.158c0.392-4.495-2.934-8.458-7.428-8.85c-4.483-0.399-8.457,2.933-8.85,7.428l-9.322,106.732
			c-45.762,30.603-75.959,82.743-75.959,141.808s30.197,111.205,75.959,141.808l9.322,106.732c0.371,4.253,3.939,7.46,8.13,7.46
			c0.239,0,0.478-0.01,0.72-0.031c4.495-0.392,7.822-4.355,7.428-8.85l-8.311-95.158c23.2,11.84,49.451,18.523,77.236,18.523
			s54.036-6.684,77.236-18.523l-8.311,95.158c-0.392,4.495,2.934,8.458,7.428,8.85c0.242,0.022,0.482,0.031,0.72,0.031
			c4.191,0,7.758-3.206,8.13-7.46l9.322-106.732c34.855-23.309,60.671-59.115,71-100.957h7.683
			c16.519,0,29.957-13.439,29.957-29.957v-21.787C442.825,228.59,429.386,215.15,412.868,215.15z M239.66,410.146
			c-84.995,0-154.144-69.149-154.144-154.144s69.149-154.144,154.144-154.144s154.144,69.149,154.144,154.144
			S324.655,410.146,239.66,410.146z M426.485,266.895c0,7.509-6.108,13.617-13.617,13.617h-4.492
			c1.158-8.007,1.769-16.188,1.769-24.511s-0.611-16.504-1.769-24.511h4.492c7.509,0,13.617,6.108,13.617,13.617V266.895z"/>
	</g>
</g>
<g>
	<g>
		<path d="M264.171,302.299h-49.021c-4.512,0-8.17,3.658-8.17,8.17c0,4.513,3.658,8.17,8.17,8.17h49.021
			c4.512,0,8.17-3.657,8.17-8.17C272.341,305.956,268.683,302.299,264.171,302.299z"/>
	</g>
</g>
<g>
</g>
<g>
</g>
<g>
</g>
<g>
</g>
<g>
</g>
<g>
</g>
<g>
</g>
<g>
</g>
<g>
</g>
<g>
</g>
<g>
</g>
<g>
</g>
<g>
</g>
<g>
</g>
<g>
</g>
</svg>
